<svg version="1.1" id="Layer_1" xmlns="http://www.w3.org/2000/svg" xmlns:xlink="http://www.w3.org/1999/xlink" x="0px" y="0px"
         viewBox="0 0 595.3 88.2" style="enable-background:new 0 0 595.3 88.2;" xml:space="preserve">
<style type="text/css">
        .st0{fill:#636569;}
</style>
<g>
        <path d="M52.5,51.9V24.5h-6.5v-1.4h18.8v1.4h-6.5v27.9c0,8.3,2.5,11.9,9.7,11.9c7.6,0,11.7-3.6,11.8-12.1l0.2-27.6h-5.9v-1.4h35
                v1.4h-6.5v39.2h10.5c3.4,0,6-1.1,8-3c2.2-2,2.9-4.8,3.9-8.5h1v12.8H90.3v-1.3h6.6V24.5H81.5v28c0,8.9-5.2,13.3-14.5,13.3
                C57.7,65.9,52.5,61.3,52.5,51.9z"/>
        <path d="M139.2,63.7V24.5h-3.4c-0.8,0-1.6,0.1-2.6,0.2c-1,0.2-2,0.5-3,1.1c-1,0.5-1.9,1.5-2.7,2.7c-0.8,1.2-1.5,3-2.2,5.5h-1V23.2
                H160v10.7h-1c-0.6-2.4-1.4-4.2-2.2-5.5c-0.8-1.2-1.7-2.2-2.7-2.7s-2-0.9-3-1.1c-1-0.1-1.9-0.2-2.6-0.2h-3.4v39.2h6.5V65h-18.9v-1.3
                L139.2,63.7L139.2,63.7z"/>
        <path d="M163.8,63.7h6.4V24.5h-6.4v-1.4h11c1.6,0,3.9-0.2,5.8-0.2c8.3,0,14.8,3,14.8,10c0,5.3-4.4,8.5-10.3,9.4v0.2
                c8.1,0.3,11,4.4,11.5,12.1c0.4,4.9,0.9,8.5,5,8.9c0.6,0.1,3.3,0.1,3.9,0.1L221,23.2h1.7l15.9,40.5h4.8v1.3h-17.7v-1.3h6.6L226.2,48
                h-13.1L207,63.7h5.9v1.3h-8.7c-1.6,0-3.9,0.1-6,0.1c-5.5-0.2-7.1-3.3-7.9-14c-0.4-5.6-2.8-7.9-8.4-7.9h-5.8v20.5h6.4v1.3h-18.8
                V63.7z M181.5,42c5.9,0,7.3-3.3,7.3-8.9c0-6.3-2.5-8.7-8.7-8.7c-1.9,0-3.3,0.1-3.9,0.1V42H181.5z M225.8,46.9l-5.9-17l-6.4,17
                H225.8z"/>
        <path class="st0" d="M262.5,24.4c-11,0-17.4,9-17.4,19.7s6.4,19.7,17.4,19.7c8.1,0,14.5-7.3,15-15.1h2.6
                c-0.9,10-8.3,17.3-17.5,17.3c-12.6,0-19.9-9.7-19.9-21.9s7.4-21.9,19.9-21.9c14.8,0,16.8,12.9,16.8,13.5h-2.6
                C275.6,28.6,269.5,24.4,262.5,24.4z"/>
        <polygon class="st0" points="315.2,65.1 286.8,65.1 286.8,23.2 314.9,23.2 314.9,25.4 289.3,25.4 289.3,42.2 313.4,42.2
                313.4,44.4 289.3,44.4 289.3,62.8 315.2,62.8     "/>
        <path class="st0" d="M324.2,48.3c0,5,1.1,15.5,13.1,15.5c10.3,0,13.7-6,13.7-15.5V23.2h2.6v25.1c0,10-3.8,17.8-16.3,17.8
                c-14.9,0-15.7-12.2-15.7-17.8V23.2h2.6V48.3z"/>
        <polygon class="st0" points="358,23.2 390.1,23.2 390.1,25.4 375.3,25.4 375.3,65.1 372.7,65.1 372.7,25.4 358,25.4        "/>
        <rect x="396.2" y="23.2" class="st0" width="2.6" height="41.9"/>
        <path class="st0" d="M427.8,24.4c-11,0-17.4,9-17.4,19.7s6.4,19.7,17.4,19.7c8.1,0,14.5-7.3,15-15.1h2.6
                c-0.9,10-8.3,17.3-17.5,17.3c-12.5,0-20-9.7-20-21.9s7.4-21.9,20-21.9c14.8,0,16.8,12.9,16.8,13.5h-2.6
                C441,28.6,434.8,24.4,427.8,24.4z"/>
        <path class="st0" d="M483.9,65.1h-2.8l-5.3-13.4h-20.1l-5.3,13.4h-2.8l16.8-41.9h2.8L483.9,65.1z M466.1,25.7H466l-9.3,23.7h18.4
                L466.1,25.7z"/>
        <polygon class="st0" points="493,23.2 493,62.8 516.7,62.8 516.7,65.1 490.4,65.1 490.4,23.2      "/>
        <path class="st0" d="M532.1,24.4c-4.8,0-11.5,2-11.5,8.9c0,6.8,7.2,7.9,14.3,9.3c7.2,1.5,14.3,3.3,14.3,11.6
                c0,8.7-8.3,11.8-14.7,11.8c-9.8,0-17.8-4-17.7-14.8h2.6c-0.5,9.1,6.8,12.6,15.1,12.6c5,0,12.1-2.3,12.1-9.6c0-7.1-7.2-8.3-14.3-9.8
                C525.2,43,518,41.3,518,33.3c0-8,7.5-11.1,14.1-11.1c8.7,0,15.6,3.8,16,13h-2.6C545.3,28,539.9,24.4,532.1,24.4z"/>
</g>
</svg>
